<svg width="220" height="55" viewBox="0 0 220 55" fill="none" xmlns="http://www.w3.org/2000/svg">
<g clip-path="url(#clip0_13_103)">
<path fill-rule="evenodd" clip-rule="evenodd" d="M80.4472 32.0778L61.7869 13.4372V27.0889L43.2591 40.7571L61.7869 40.7699V50.7185L80.4472 32.0778Z" fill="#4E529A"/>
<path fill-rule="evenodd" clip-rule="evenodd" d="M14.6667 32.0711L33.327 50.7117V37.2045L51.7191 23.5273L33.327 23.5147V13.4305L14.6667 32.0711Z" fill="#8C8DFC"/>
<path d="M109.172 43.0548H94.8552V38.9434L103.051 29.8068H95.0663V25.7657H109.032V29.6664L100.589 38.9785H109.172V43.0548Z" fill="white" fill-opacity="0.9"/>
<path d="M128.712 25.7657L121.782 33.0398L128.852 43.0548H123.118L118.545 36.4484L116.611 38.4866V43.0548H111.932V17.6131H116.611V32.1964L122.591 25.7657H128.712Z" fill="white" fill-opacity="0.9"/>
<path d="M149.06 24.0789L144.698 25.4144C144.534 24.5241 144.088 23.7159 143.362 22.9897C142.635 22.2634 141.567 21.9004 140.16 21.9004C139.012 21.9004 138.074 22.2166 137.346 22.8491C136.62 23.4583 136.256 24.1962 136.256 25.0629C136.256 26.5857 137.159 27.5228 138.965 27.8741L142.447 28.5418C144.651 28.9635 146.363 29.8421 147.583 31.1774C148.803 32.5127 149.413 34.0822 149.413 35.8862C149.413 37.9478 148.591 39.7515 146.95 41.2978C145.331 42.8206 143.15 43.5818 140.407 43.5818C138.836 43.5818 137.417 43.3476 136.151 42.8791C134.884 42.4105 133.864 41.7897 133.09 41.0166C132.316 40.2201 131.706 39.3884 131.261 38.5217C130.839 37.6314 130.581 36.7178 130.487 35.7807L134.99 34.5859C135.107 35.9213 135.623 37.034 136.537 37.9243C137.475 38.8145 138.778 39.2596 140.442 39.2596C141.708 39.2596 142.694 38.9785 143.397 38.4162C144.124 37.854 144.487 37.116 144.487 36.2024C144.487 35.4761 144.217 34.8554 143.678 34.3399C143.163 33.8011 142.424 33.4381 141.463 33.2506L137.979 32.5478C135.962 32.1261 134.368 31.2945 133.195 30.0528C132.023 28.8112 131.437 27.2651 131.437 25.4144C131.437 23.2122 132.281 21.3615 133.969 19.8622C135.682 18.3629 137.734 17.6131 140.125 17.6131C141.556 17.6131 142.835 17.8123 143.96 18.2105C145.085 18.6088 145.989 19.1476 146.668 19.827C147.348 20.483 147.876 21.1624 148.251 21.8651C148.627 22.568 148.896 23.3059 149.06 24.0789Z" fill="white" fill-opacity="0.9"/>
<path d="M157.294 49.8719H152.334L156.414 40.8761L149.062 25.7657H154.304L158.912 35.8862L163.169 25.7657H168.164L157.294 49.8719Z" fill="white" fill-opacity="0.9"/>
<path d="M174.621 33.1101V43.0548H169.942V25.7658H174.48V27.9094C174.973 27.066 175.676 26.4217 176.591 25.9765C177.506 25.5315 178.467 25.3089 179.476 25.3089C181.516 25.3089 183.064 25.9532 184.12 27.2416C185.199 28.5067 185.738 30.1465 185.738 32.1613V43.0548H181.059V32.9695C181.059 31.9388 180.789 31.107 180.25 30.4745C179.733 29.8421 178.936 29.5258 177.857 29.5258C176.873 29.5258 176.087 29.8655 175.501 30.5449C174.914 31.2241 174.621 32.0793 174.621 33.1101Z" fill="white" fill-opacity="0.9"/>
<path d="M197.204 29.5609C195.961 29.5609 194.918 29.9943 194.074 30.8611C193.23 31.7278 192.807 32.9109 192.807 34.4103C192.807 35.9096 193.23 37.1044 194.074 37.9945C194.942 38.8614 195.997 39.2947 197.24 39.2947C198.342 39.2947 199.221 39.0136 199.879 38.4513C200.535 37.8657 200.981 37.1746 201.215 36.3781L205.331 37.7486C204.909 39.3416 203.994 40.7121 202.587 41.86C201.18 43.0079 199.398 43.5818 197.24 43.5818C194.66 43.5818 192.491 42.7151 190.732 40.9815C188.997 39.2245 188.129 37.034 188.129 34.4103C188.129 31.7629 188.984 29.5726 190.696 27.839C192.433 26.1054 194.566 25.2386 197.099 25.2386C199.304 25.2386 201.11 25.8126 202.517 26.9605C203.924 28.085 204.826 29.4555 205.225 31.0719L201.039 32.4776C200.477 30.5331 199.198 29.5609 197.204 29.5609Z" fill="white" fill-opacity="0.9"/>
</g>
<defs>
<clipPath id="clip0_13_103">
<rect width="220" height="55" fill="white"/>
</clipPath>
</defs>
</svg>
