<svg width="125" height="35" viewBox="0 0 125 35" fill="none" xmlns="http://www.w3.org/2000/svg">
<g clip-path="url(#clip0_13_91)">
<path d="M36.66 0H0.833187C0.61221 0 0.400288 0.0819407 0.244033 0.227797C0.087781 0.373653 0 0.571478 0 0.77775V34.2209C0 34.4272 0.087781 34.6252 0.244033 34.7711C0.400288 34.9167 0.61221 34.9986 0.833187 34.9986H36.66C36.8812 34.9986 37.0929 34.9167 37.2494 34.7711C37.4056 34.6252 37.4935 34.4272 37.4935 34.2209V0.77775C37.4935 0.571478 37.4056 0.373653 37.2494 0.227797C37.0929 0.0819407 36.8812 0 36.66 0ZM24.9956 22.5548C24.9956 22.761 24.9078 22.9588 24.7515 23.1047C24.5953 23.2505 24.3834 23.3325 24.1624 23.3325H13.331C13.11 23.3325 12.8981 23.2505 12.7418 23.1047C12.5856 22.9588 12.4978 22.761 12.4978 22.5548V12.444C12.4978 12.2377 12.5856 12.0399 12.7418 11.8941C12.8981 11.7482 13.11 11.6662 13.331 11.6662H24.1624C24.3834 11.6662 24.5953 11.7482 24.7515 11.8941C24.9078 12.0399 24.9956 12.2377 24.9956 12.444V22.5548Z" fill="white"/>
<path d="M111.662 11.6677H100.831C100.371 11.6677 99.9976 12.0159 99.9976 12.4454V22.5562C99.9976 22.9857 100.371 23.3339 100.831 23.3339H111.662C112.123 23.3339 112.495 22.9857 112.495 22.5562V12.4454C112.495 12.0159 112.123 11.6677 111.662 11.6677Z" fill="white"/>
<path d="M99.1672 0.000564575H88.336C87.8757 0.000564575 87.5028 0.348776 87.5028 0.778314V10.8891C87.5028 11.3186 87.8757 11.6668 88.336 11.6668H99.1672C99.6274 11.6668 100.001 11.3186 100.001 10.8891V0.778314C100.001 0.348776 99.6274 0.000564575 99.1672 0.000564575Z" fill="white"/>
<path d="M124.167 0.000564575H113.335C112.875 0.000564575 112.502 0.348776 112.502 0.778314V10.8891C112.502 11.3186 112.875 11.6668 113.335 11.6668H124.167C124.627 11.6668 125 11.3186 125 10.8891V0.778314C125 0.348776 124.627 0.000564575 124.167 0.000564575Z" fill="white"/>
<path d="M99.1672 23.3336H88.336C87.8757 23.3336 87.5028 23.6818 87.5028 24.1114V34.2222C87.5028 34.6517 87.8757 35 88.336 35H99.1672C99.6274 35 100.001 34.6517 100.001 34.2222V24.1114C100.001 23.6818 99.6274 23.3336 99.1672 23.3336Z" fill="white"/>
<path d="M124.167 23.3336H113.335C112.875 23.3336 112.502 23.6818 112.502 24.1114V34.2222C112.502 34.6517 112.875 35 113.335 35H124.167C124.627 35 125 34.6517 125 34.2222V24.1114C125 23.6818 124.627 23.3336 124.167 23.3336Z" fill="white"/>
<path d="M80.4056 0.000564575H69.5744C69.1142 0.000564575 68.7409 0.348776 68.7409 0.778314V10.8891C68.7409 11.3186 69.1142 11.6668 69.5744 11.6668H80.4056C80.8659 11.6668 81.2388 11.3186 81.2388 10.8891V0.778314C81.2388 0.348776 80.8659 0.000564575 80.4056 0.000564575Z" fill="white"/>
<path d="M80.4056 23.3336H69.5744C69.1142 23.3336 68.7409 23.6818 68.7409 24.1114V34.2222C68.7409 34.6517 69.1142 35 69.5744 35H80.4056C80.8659 35 81.2388 34.6517 81.2388 34.2222V24.1114C81.2388 23.6818 80.8659 23.3336 80.4056 23.3336Z" fill="white"/>
<path d="M68.7374 12.4353C68.7374 12.229 68.6495 12.0312 68.4933 11.8853C68.3372 11.7394 68.1252 11.6575 67.9043 11.6575H56.2395V0.77775C56.2395 0.571478 56.1516 0.373653 55.9955 0.227797C55.8393 0.0819407 55.6273 0 55.4064 0H44.5751C44.3539 0 44.1422 0.0819407 43.9857 0.227797C43.8296 0.373653 43.7416 0.571478 43.7416 0.77775V34.2035C43.7416 34.4098 43.8296 34.6075 43.9857 34.7534C44.1422 34.8993 44.3539 34.9812 44.5751 34.9812H55.4064C55.6273 34.9812 55.8393 34.8993 55.9955 34.7534C56.1516 34.6075 56.2395 34.4098 56.2395 34.2035V23.3237H67.9043C68.1252 23.3237 68.3372 23.2418 68.4933 23.096C68.6495 22.9501 68.7374 22.7523 68.7374 22.546V12.4353Z" fill="white"/>
</g>
<defs>
<clipPath id="clip0_13_91">
<rect width="125" height="35" fill="white"/>
</clipPath>
</defs>
</svg>
