<svg width="194" height="39" viewBox="0 0 194 39" fill="none" xmlns="http://www.w3.org/2000/svg">
<g clip-path="url(#clip0_13_114)">
<path d="M11.8661 16.3873L19.4019 8.81589L26.9407 16.3935L31.3231 11.9855L19.4019 0L7.48065 11.9825L11.8661 16.3873Z" fill="white"/>
<path d="M-0.00158691 19.5007L4.38222 15.0943L8.76603 19.5007L4.38222 23.907L-0.00158691 19.5007Z" fill="white"/>
<path d="M11.866 22.6127L19.4018 30.1872L26.9407 22.6096L31.3261 27.0114L31.323 27.0145L19.4018 39L7.48062 27.0206L7.47449 27.0145L11.866 22.6127Z" fill="white"/>
<path d="M30.0302 19.5017L34.414 15.0954L38.7978 19.5017L34.414 23.9081L30.0302 19.5017Z" fill="white"/>
<path d="M23.8486 19.4985L19.4019 15.0258L16.1136 18.331L15.7336 18.7099L14.9552 19.4923L14.949 19.4985L14.9552 19.5077L19.4019 23.9742L23.8486 19.5015L23.8516 19.4985H23.8486Z" fill="white"/>
<path d="M45.6377 9.45044H55.1747C57.5405 9.45044 59.3302 10.0665 60.5438 11.2986C61.001 11.7538 61.3615 12.2975 61.6033 12.8969C61.8451 13.4963 61.9632 14.1389 61.9504 14.7856V14.8441C61.9587 15.3738 61.8853 15.9017 61.7329 16.4089C61.5971 16.8455 61.4 17.2604 61.1475 17.641C60.9122 17.9999 60.6274 18.3235 60.3017 18.6021C59.9835 18.8774 59.6349 19.1151 59.2628 19.3106C60.3359 19.6862 61.3008 20.3209 62.073 21.1588C62.7554 21.9391 63.0966 23.0172 63.0966 24.3931V24.4516C63.116 25.3109 62.93 26.1623 62.5542 26.9344C62.19 27.6457 61.6562 28.2553 61.0004 28.7086C60.259 29.2082 59.4335 29.5683 58.5641 29.7713C57.5311 30.0176 56.4722 30.1365 55.4106 30.1256H45.6377V9.45044ZM54.2185 17.8104C55.0436 17.8505 55.8647 17.6721 56.5997 17.2929C56.8863 17.1247 57.1203 16.8791 57.2752 16.584C57.4301 16.289 57.4997 15.9562 57.4762 15.6234V15.5649C57.4913 15.2583 57.4294 14.9527 57.296 14.6765C57.1626 14.4003 56.9621 14.1624 56.7131 13.9847C56.2044 13.6212 55.4699 13.4395 54.5097 13.4395H50.0476V17.8104H54.2185ZM55.4229 26.1427C56.2449 26.189 57.0632 26 57.7826 25.5975C58.0629 25.4165 58.2897 25.1633 58.4396 24.8643C58.5894 24.5652 58.6567 24.2313 58.6346 23.8972V23.8386C58.6456 23.5211 58.579 23.2057 58.4407 22.92C58.3023 22.6343 58.0963 22.387 57.8408 22.1999C57.3137 21.7892 56.4618 21.5838 55.285 21.5838H50.0476V26.1427H55.4229Z" fill="white"/>
<path d="M68.7783 9.45044H73.3047V30.1317H68.7783V9.45044Z" fill="white"/>
<path d="M80.1541 9.45044H84.328L93.9753 22.1783V9.45044H98.4434V30.1317H94.5913L84.6283 16.9849V30.1317H80.1541V9.45044Z" fill="white"/>
<path d="M112.148 9.30258H116.316L125.133 30.1317H120.407L118.526 25.4928H109.825L107.944 30.1317H103.328L112.148 9.30258ZM116.911 21.476L114.171 14.7671L111.443 21.476H116.911Z" fill="white"/>
<path d="M130.027 9.45044H134.201L143.842 22.1783V9.45044H148.31V30.1317H144.458L134.495 16.9849V30.1317H130.027V9.45044Z" fill="white"/>
<path d="M164.602 30.4952C163.159 30.5076 161.729 30.2268 160.397 29.6697C159.143 29.1493 158.006 28.3819 157.051 27.4127C156.097 26.4436 155.345 25.2922 154.841 24.0265C154.308 22.7026 154.039 21.2868 154.047 19.8589V19.8003C154.023 16.9856 155.101 14.2742 157.047 12.2505C158.005 11.2619 159.152 10.4782 160.418 9.94637C161.796 9.3727 163.276 9.08659 164.767 9.10544C165.649 9.09883 166.53 9.17826 167.396 9.34263C168.138 9.4836 168.863 9.70141 169.56 9.99258C170.192 10.2601 170.794 10.5969 171.353 10.9968C171.898 11.3867 172.411 11.8215 172.885 12.2967L170.007 15.6357C169.272 14.9539 168.447 14.3766 167.556 13.92C166.68 13.4991 165.719 13.2882 164.749 13.3039C163.941 13.2953 163.141 13.4594 162.401 13.7855C161.661 14.1116 160.999 14.5922 160.458 15.1952C159.922 15.7968 159.502 16.4936 159.22 17.2498C158.925 18.049 158.776 18.8955 158.782 19.748V19.8065C158.779 20.6578 158.927 21.5027 159.22 22.3016C159.499 23.0605 159.914 23.7613 160.446 24.3685C160.982 24.979 161.643 25.4666 162.383 25.7983C163.124 26.1299 163.926 26.2978 164.736 26.2906C165.768 26.3233 166.792 26.1 167.718 25.6406C168.6 25.1578 169.415 24.5613 170.142 23.8664L173.023 26.7927C172.514 27.3476 171.964 27.8625 171.377 28.3328C170.801 28.7911 170.175 29.1827 169.511 29.5003C168.804 29.8349 168.059 30.0821 167.292 30.2365C166.407 30.415 165.505 30.5017 164.602 30.4952Z" fill="white"/>
<path d="M178.365 9.45044H193.85V13.498H182.817V17.6934H192.532V21.7409H182.833V26.0842H194.003V30.1317H178.374L178.365 9.45044Z" fill="white"/>
</g>
<defs>
<clipPath id="clip0_13_114">
<rect width="194" height="39" fill="white"/>
</clipPath>
</defs>
</svg>
